<?xml version="1.0" encoding="UTF-8"?>
<svg xmlns="http://www.w3.org/2000/svg" viewBox="0 0 400 340" fill="none">

        <rect width="400" height="340" fill="#F2DDD4"/>
        <path d="M-30 340 C-30 280, 20 220, 50 180 C80 140, 60 100, 90 60 C120 20, 180 30, 200 80 C220 130, 180 180, 160 230 C140 280, 120 340, 120 340Z" fill="#B87060"/>
        <path d="M250 -20 C220 30, 200 80, 220 130 C240 180, 300 190, 320 240 C340 290, 380 310, 420 340 L420 -20Z" fill="#A89282"/>
        <path d="M140 340 C150 280, 180 230, 210 190 C240 150, 260 140, 270 100 C280 60, 250 30, 220 20 C190 10, 170 40, 180 80 C190 120, 170 160, 150 200 C130 240, 100 300, 100 340Z" fill="#E8C4B8" opacity="0.85"/>
        <circle cx="130" cy="70" r="28" fill="#9E5E50"/>
        
</svg>