<?xml version="1.0" encoding="UTF-8"?>
<svg xmlns="http://www.w3.org/2000/svg" viewBox="0 0 400 340" fill="none">

        <rect width="400" height="340" fill="#F2DDD4"/>
        <path d="M-20 340 C-20 300, 0 260, 40 230 C80 200, 140 190, 200 200 C260 210, 320 230, 360 260 C400 290, 420 320, 420 340Z" fill="#B87060"/>
        <path d="M140 340 C150 300, 160 250, 170 210 C180 170, 200 140, 210 100 C220 60, 200 30, 180 40 C160 50, 170 80, 180 110 C190 140, 160 180, 140 220 C120 260, 110 310, 110 340Z" fill="#D09080" opacity="0.8"/>
        <circle cx="190" cy="60" r="20" fill="#9E5E50" opacity="0.6"/>
        <circle cx="220" cy="30" r="10" fill="#A89282" opacity="0.5"/>
        <circle cx="170" cy="20" r="6" fill="#9E5E50" opacity="0.35"/>
        <path d="M280 340 C290 290, 310 240, 340 200 C370 160, 400 150, 420 140 L420 340Z" fill="#A89282" opacity="0.5"/>
        
</svg>