<?xml version="1.0" encoding="UTF-8"?>
<svg xmlns="http://www.w3.org/2000/svg" viewBox="0 0 400 340" fill="none">

        <rect width="400" height="340" fill="#E8C4B8"/>
        <path d="M200 170 C160 120, 100 80, 60 40 C40 20, 10 30, -10 60 C-30 90, 0 140, 50 170 C100 200, 160 190, 200 170Z" fill="#D09080" opacity="0.7"/>
        <path d="M200 170 C240 120, 300 80, 340 40 C360 20, 390 30, 410 60 C430 90, 400 140, 350 170 C300 200, 240 190, 200 170Z" fill="#D09080" opacity="0.7"/>
        <path d="M200 170 C180 220, 160 280, 160 340 L240 340 C240 280, 220 220, 200 170Z" fill="#B87060" opacity="0.6"/>
        <path d="M200 170 C150 180, 80 200, 20 230 C-10 245, -10 270, 10 290 C30 310, 70 300, 120 270 C170 240, 190 200, 200 170Z" fill="#A89282" opacity="0.45"/>
        <path d="M200 170 C250 180, 320 200, 380 230 C410 245, 410 270, 390 290 C370 310, 330 300, 280 270 C230 240, 210 200, 200 170Z" fill="#A89282" opacity="0.45"/>
        <circle cx="200" cy="170" r="24" fill="#9E5E50"/>
        <circle cx="200" cy="170" r="14" fill="#F2DDD4" opacity="0.6"/>
        
</svg>