<?xml version="1.0" encoding="UTF-8"?>
<svg xmlns="http://www.w3.org/2000/svg" viewBox="0 0 1000 320" fill="none">

        <rect width="1000" height="320" fill="#D09080"/>
        <path d="M-50 320 C-20 240, 50 160, 120 120 C190 80, 250 100, 300 80 C350 60, 380 20, 420 0 L-50 0Z" fill="#B87060"/>
        <path d="M300 320 C320 260, 360 200, 400 160 C440 120, 500 110, 540 130 C580 150, 580 200, 560 260 C540 320, 500 340, 460 340Z" fill="#E8C4B8" opacity="0.5"/>
        <path d="M700 0 C680 40, 660 100, 680 150 C700 200, 750 220, 800 200 C850 180, 880 130, 900 80 C920 30, 950 10, 1020 0Z" fill="#9E5E50" opacity="0.5"/>
        <path d="M0 320 C100 290, 250 280, 400 290 C550 300, 700 280, 850 285 C920 288, 970 300, 1000 310 L1000 320Z" fill="#B87060" opacity="0.4"/>
        <circle cx="850" cy="80" r="35" fill="#F2DDD4" opacity="0.3"/>
        
</svg>